<svg width="200" height="200" viewBox="0 0 200 200" fill="none" xmlns="http://www.w3.org/2000/svg">
<path d="M103.4 88.8C103.6 88.7333 103.9 88.7 104.3 88.7C105.433 88.7 106 89.4333 106 90.9C106 91.7 105.817 92.3833 105.45 92.95C105.117 93.4833 104.583 93.8167 103.85 93.95C100.817 94.5167 97.8333 95.15 94.9 95.85L94.75 97.05C93.8167 103.617 91.95 108.467 89.15 111.6C86.3833 114.767 82.9167 116.35 78.75 116.35C75.9833 116.35 73.8333 115.667 72.3 114.3C70.8 112.967 70.05 111.25 70.05 109.15C70.05 105.65 71.6167 102.533 74.75 99.8C77.8833 97.0667 82.6333 94.65 89 92.55L90 85.5C90.1333 84.7 90.3 83.6333 90.5 82.3C88.9333 86.4333 86.9333 89.5167 84.5 91.55C82.0667 93.5833 79.35 94.6 76.35 94.6C73.4833 94.6 71.3 93.7333 69.8 92C68.3 90.2333 67.55 87.9667 67.55 85.2C67.55 83.9667 67.6833 82.6167 67.95 81.15C68.2167 79.65 68.6333 77.6333 69.2 75.1C69.7 72.8 70.0667 70.9667 70.3 69.6C70.5667 68.2333 70.7 67.0167 70.7 65.95C70.7 64.35 70.0833 63.55 68.85 63.55C67.8833 63.55 66.7333 64.0333 65.4 65C64.1 65.9333 62.7167 67.3833 61.25 69.35C60.7833 69.9833 60.2667 70.3 59.7 70.3C59.2333 70.3 58.8167 70.0833 58.45 69.65C58.1167 69.1833 57.95 68.6667 57.95 68.1C57.95 67.0667 58.4167 65.9 59.35 64.6C62.75 59.9333 66.7333 57.6 71.3 57.6C73.3333 57.6 74.9167 58.2167 76.05 59.45C77.2167 60.6833 77.8 62.5 77.8 64.9C77.8 66.6333 77.6333 68.4167 77.3 70.25C77 72.05 76.5333 74.35 75.9 77.15C75.5 78.8167 75.2 80.1667 75 81.2C74.8 82.2 74.7 83.0333 74.7 83.7C74.7 85.4 75 86.6167 75.6 87.35C76.2 88.0833 77.25 88.45 78.75 88.45C80.55 88.45 82.3833 87.4667 84.25 85.5C86.15 83.5 87.85 80.4833 89.35 76.45C90.8833 72.4167 91.9833 67.4833 92.65 61.65C92.8167 60.1833 93.2 59.15 93.8 58.55C94.4 57.9167 95.2667 57.6 96.4 57.6C98.7333 57.6 99.9 58.7667 99.9 61.1C99.9 61.5 99.8833 61.8167 99.85 62.05C99.15 67.0167 98.5 71.5 97.9 75.5C97.5667 77.9 97.2 80.3667 96.8 82.9C96.4333 85.4333 96.0667 88 95.7 90.6C98.1333 89.9333 100.7 89.3333 103.4 88.8ZM88.25 97.8C80.1833 100.6 76.15 104 76.15 108C76.15 108.933 76.4333 109.7 77 110.3C77.6 110.933 78.4333 111.25 79.5 111.25C84.1333 111.25 87.0333 106.883 88.2 98.15L88.25 97.8ZM139.229 88.85C139.663 88.85 139.996 89.05 140.229 89.45C140.496 89.85 140.629 90.4 140.629 91.1C140.629 92.4 140.313 93.4333 139.679 94.2C137.813 96.4333 135.996 98 134.229 98.9C132.496 99.8 130.396 100.25 127.929 100.25C126.196 100.25 124.596 100.033 123.129 99.6C121.663 99.1667 119.879 98.5167 117.779 97.65C115.879 96.8167 114.046 96.1333 112.279 95.6C110.579 98.7 108.029 100.25 104.629 100.25C102.763 100.25 101.279 99.8333 100.179 99C99.046 98.1333 98.4793 97.0333 98.4793 95.7C98.4793 94.0667 99.2626 92.7167 100.829 91.65C102.396 90.55 104.479 90 107.079 90H107.729L108.629 75.45C108.829 72.1167 109.429 69.3667 110.429 67.2C111.429 65.0333 112.813 63.1833 114.579 61.65C116.113 60.3167 117.863 59.3167 119.829 58.65C121.796 57.95 123.879 57.6 126.079 57.6C129.679 57.6 132.446 58.5333 134.379 60.4C136.313 62.2667 137.279 64.7 137.279 67.7C137.279 69.7333 136.913 71.3833 136.179 72.65C135.446 73.8833 134.429 74.5 133.129 74.5C132.196 74.5 131.463 74.2833 130.929 73.85C130.396 73.3833 130.129 72.7333 130.129 71.9C130.129 71.6 130.196 71.05 130.329 70.25C130.529 69.3167 130.629 68.4833 130.629 67.75C130.629 66.35 130.213 65.25 129.379 64.45C128.579 63.6167 127.346 63.2 125.679 63.2C122.746 63.2 120.479 64.1667 118.879 66.1C117.279 68 116.263 71 115.829 75.1L114.679 86.45C114.513 88.05 114.296 89.4333 114.029 90.6C116.163 90.9667 118.829 91.55 122.029 92.35C123.896 92.8167 125.329 93.15 126.329 93.35C127.329 93.55 128.213 93.65 128.979 93.65C130.913 93.65 132.563 93.3333 133.929 92.7C135.329 92.0333 136.646 90.9833 137.879 89.55C138.279 89.0833 138.729 88.85 139.229 88.85Z" fill="white"/>
<g clip-path="url(#clip0_2_6)">
<path d="M183.333 150V25H16.6667V150H0V166.667H200V150H183.333ZM116.667 150H83.3333V141.667H116.667V150ZM166.667 125H33.3333V41.6667H166.667V125Z" fill="white"/>
</g>
<defs>
<clipPath id="clip0_2_6">
<rect width="200" height="200" fill="white"/>
</clipPath>
</defs>
</svg>
