<svg width="200" height="200" viewBox="0 0 200 200" fill="none" xmlns="http://www.w3.org/2000/svg">
<path d="M100.05 58.5C101.083 58.7 101.85 59.05 102.35 59.55C102.883 60.05 103.15 60.6333 103.15 61.3C103.15 62.4 102.833 63.2 102.2 63.7C101.6 64.2 100.633 64.4 99.3 64.3C96.3 64.0667 93.95 63.9167 92.25 63.85C90.5833 63.75 88.3833 63.6833 85.65 63.65C84.4167 69.7833 83.2833 75.95 82.25 82.15C81.8833 84.4167 81.5 87.05 81.1 90.05C80.7 93.0167 80.4333 95.4167 80.3 97.25C80.2333 98.2167 79.8333 98.9667 79.1 99.5C78.3667 100 77.4833 100.25 76.45 100.25C75.35 100.25 74.5 99.9833 73.9 99.45C73.3 98.9167 73 98.2167 73 97.35C73 96.55 73.1167 95.2333 73.35 93.4C73.6167 91.5333 73.9167 89.5833 74.25 87.55C74.6167 85.5167 74.9 83.75 75.1 82.25C75.4667 79.7167 75.8833 77.2 76.35 74.7C76.8167 72.2 77.2833 69.8333 77.75 67.6C77.85 67.1 77.9667 66.5333 78.1 65.9C78.2333 65.2333 78.3833 64.5 78.55 63.7C75.2833 63.8 72.7167 64.0667 70.85 64.5C68.9833 64.9333 67.65 65.55 66.85 66.35C66.0833 67.1167 65.7 68.1167 65.7 69.35C65.7 70.4833 66.0333 71.5667 66.7 72.6C66.8333 72.8333 66.9 73.0833 66.9 73.35C66.9 73.9833 66.5167 74.5833 65.75 75.15C65.0167 75.6833 64.25 75.95 63.45 75.95C62.8833 75.95 62.4167 75.7833 62.05 75.45C61.3833 74.8833 60.8333 74.0833 60.4 73.05C59.9667 71.9833 59.75 70.7833 59.75 69.45C59.75 66.6167 60.6667 64.35 62.5 62.65C64.3667 60.9167 67.1833 59.65 70.95 58.85C74.75 58.05 79.6167 57.65 85.55 57.65C89.2167 57.65 92.1333 57.7167 94.3 57.85C96.5 57.9833 98.4167 58.2 100.05 58.5ZM115.513 100.25C111.547 100.25 108.097 99.5333 105.163 98.1C102.23 96.6333 99.9799 94.5667 98.4133 91.9C96.8466 89.2333 96.0633 86.1333 96.0633 82.6C96.0633 77.7 96.9799 73.35 98.8133 69.55C100.68 65.75 103.197 62.8167 106.363 60.75C109.53 58.65 113.047 57.6 116.913 57.6C120.513 57.6 123.247 58.5333 125.113 60.4C126.98 62.2333 127.913 64.6667 127.913 67.7C127.913 69.7333 127.547 71.3667 126.813 72.6C126.113 73.8333 125.097 74.45 123.763 74.45C122.83 74.45 122.097 74.2333 121.563 73.8C121.03 73.3667 120.763 72.7333 120.763 71.9C120.763 71.6 120.83 71.05 120.963 70.25C121.163 69.25 121.263 68.45 121.263 67.85C121.263 64.8167 119.647 63.3 116.413 63.3C114.213 63.3 112.113 64.0167 110.113 65.45C108.113 66.8833 106.497 69 105.263 71.8C104.03 74.5667 103.413 77.8667 103.413 81.7C103.413 85.7 104.53 88.8 106.763 91C108.997 93.1667 112.297 94.25 116.663 94.25C118.83 94.25 121.013 93.9833 123.213 93.45C125.447 92.8833 127.913 92.0333 130.613 90.9C131.113 90.7 131.53 90.6 131.863 90.6C132.397 90.6 132.797 90.8 133.063 91.2C133.33 91.6 133.463 92.1167 133.463 92.75C133.463 94.7833 132.363 96.2833 130.163 97.25C127.797 98.2833 125.33 99.05 122.763 99.55C120.23 100.017 117.813 100.25 115.513 100.25Z" fill="white"/>
<g clip-path="url(#clip0_26_2)">
<path d="M183.333 150V25H16.6667V150H0V166.667H200V150H183.333ZM116.667 150H83.3333V141.667H116.667V150ZM166.667 125H33.3333V41.6667H166.667V125Z" fill="white"/>
</g>
<defs>
<clipPath id="clip0_26_2">
<rect width="200" height="200" fill="white"/>
</clipPath>
</defs>
</svg>
