<svg width="200" height="200" viewBox="0 0 200 200" fill="none" xmlns="http://www.w3.org/2000/svg">
<path d="M101.4 68C101.4 70.8333 100.4 73.2833 98.4 75.35C96.4 77.3833 93.4833 78.85 89.65 79.75C91.7167 80.3167 93.2833 81.25 94.35 82.55C95.4167 83.8167 95.95 85.2833 95.95 86.95C95.95 89.5833 95.1167 91.8667 93.45 93.8C91.8167 95.7333 89.4167 97.2333 86.25 98.3C83.0833 99.3333 79.2667 99.85 74.8 99.85C73.1333 99.85 71.8 99.8 70.8 99.7C70.7667 100.633 70.3667 101.333 69.6 101.8C68.8333 102.267 67.85 102.5 66.65 102.5C65.45 102.5 64.6167 102.233 64.15 101.7C63.7167 101.167 63.5333 100.383 63.6 99.35C63.9 94.6833 64.4833 89.8 65.35 84.7C66.2167 79.5667 67.3167 74.6167 68.65 69.85C68.8833 69.0167 69.35 68.4333 70.05 68.1C70.75 67.7667 71.6667 67.6 72.8 67.6C74.8333 67.6 75.85 68.1667 75.85 69.3C75.85 69.7667 75.75 70.3 75.55 70.9C74.6833 73.5 73.8167 77.0333 72.95 81.5C72.0833 85.9333 71.4667 90.1667 71.1 94.2C72.7 94.3333 74 94.4 75 94.4C79.6667 94.4 83.0833 93.7333 85.25 92.4C87.45 91.0333 88.55 89.3 88.55 87.2C88.55 85.7333 87.9167 84.5 86.65 83.5C85.4167 82.5 83.3333 81.95 80.4 81.85C79.7333 81.8167 79.2667 81.65 79 81.35C78.7333 81.05 78.6 80.5667 78.6 79.9C78.6 78.9333 78.8 78.15 79.2 77.55C79.6 76.95 80.3333 76.6333 81.4 76.6C83.7667 76.5333 85.9 76.1833 87.8 75.55C89.7333 74.9167 91.25 74.0333 92.35 72.9C93.45 71.7333 94 70.3833 94 68.85C94 66.9167 93.05 65.4 91.15 64.3C89.25 63.1667 86.3333 62.6 82.4 62.6C78.8333 62.6 75.3833 63.0667 72.05 64C68.7167 64.9 65.8833 66.05 63.55 67.45C62.4833 68.0833 61.5833 68.4 60.85 68.4C60.25 68.4 59.7833 68.2 59.45 67.8C59.15 67.3667 59 66.8333 59 66.2C59 65.3667 59.1667 64.65 59.5 64.05C59.8667 63.45 60.7167 62.7667 62.05 62C64.85 60.4 68.1333 59.15 71.9 58.25C75.6667 57.35 79.5167 56.9 83.45 56.9C89.4833 56.9 93.9833 57.9167 96.95 59.95C99.9167 61.9833 101.4 64.6667 101.4 68ZM122.007 100.25C118.041 100.25 114.591 99.5333 111.657 98.1C108.724 96.6333 106.474 94.5667 104.907 91.9C103.341 89.2333 102.557 86.1333 102.557 82.6C102.557 77.7 103.474 73.35 105.307 69.55C107.174 65.75 109.691 62.8167 112.857 60.75C116.024 58.65 119.541 57.6 123.407 57.6C127.007 57.6 129.741 58.5333 131.607 60.4C133.474 62.2333 134.407 64.6667 134.407 67.7C134.407 69.7333 134.041 71.3667 133.307 72.6C132.607 73.8333 131.591 74.45 130.257 74.45C129.324 74.45 128.591 74.2333 128.057 73.8C127.524 73.3667 127.257 72.7333 127.257 71.9C127.257 71.6 127.324 71.05 127.457 70.25C127.657 69.25 127.757 68.45 127.757 67.85C127.757 64.8167 126.141 63.3 122.907 63.3C120.707 63.3 118.607 64.0167 116.607 65.45C114.607 66.8833 112.991 69 111.757 71.8C110.524 74.5667 109.907 77.8667 109.907 81.7C109.907 85.7 111.024 88.8 113.257 91C115.491 93.1667 118.791 94.25 123.157 94.25C125.324 94.25 127.507 93.9833 129.707 93.45C131.941 92.8833 134.407 92.0333 137.107 90.9C137.607 90.7 138.024 90.6 138.357 90.6C138.891 90.6 139.291 90.8 139.557 91.2C139.824 91.6 139.957 92.1167 139.957 92.75C139.957 94.7833 138.857 96.2833 136.657 97.25C134.291 98.2833 131.824 99.05 129.257 99.55C126.724 100.017 124.307 100.25 122.007 100.25Z" fill="white"/>
<g clip-path="url(#clip0_26_7)">
<path d="M183.333 150V25H16.6667V150H0V166.667H200V150H183.333ZM116.667 150H83.3333V141.667H116.667V150ZM166.667 125H33.3333V41.6667H166.667V125Z" fill="white"/>
</g>
<defs>
<clipPath id="clip0_26_7">
<rect width="200" height="200" fill="white"/>
</clipPath>
</defs>
</svg>
